<svg width="79" height="45" viewBox="0 0 79 45" fill="none" xmlns="http://www.w3.org/2000/svg">
<path fill-rule="evenodd" clip-rule="evenodd" d="M47.0856 26.587C49.9307 30.3816 54.5317 38.5312 47.6775 41.0056C43.3158 42.5795 36.8869 41.064 34.3713 36.9395C31.2188 31.77 36.1969 27.1383 40.4971 24.981C41.7348 24.3595 43.0286 23.8373 44.3565 23.3867C45.3255 24.4008 46.2432 25.4636 47.0856 26.587ZM78.548 20.2105C68.1695 17.5468 56.3261 17.0973 45.7771 20.0043C43.9817 18.3109 42.1527 16.8426 40.5441 15.6901C31.1989 8.99612 18.5255 4.6409 6.99589 4.48965C5.73592 4.47355 5.23947 5.91582 5.71895 6.83375C5.39333 6.35547 5.07353 5.87303 4.75953 5.38644C6.06117 4.61881 7.44167 4.07986 8.97706 3.74992C9.91536 3.54862 10.9685 3.60456 11.8748 3.33493C12.4147 3.17447 12.4253 2.77303 13.0374 2.67825C13.2326 2.64805 13.3447 2.37874 13.1337 2.27135C12.5558 1.97779 12.3945 1.45446 11.8042 1.18509C10.8744 0.760352 9.09982 0.888683 8.13173 0.987879C5.72073 1.23491 3.45973 2.12589 1.41274 3.39641C0.557953 3.92734 0.424767 4.98235 0.861381 5.8224C1.93143 7.88192 3.29385 9.78977 4.76023 11.5839C6.03107 13.1379 7.37433 14.9856 9.20989 15.8682C10.6487 16.561 12.0825 15.0305 11.2974 13.6383C10.3396 11.9391 8.65921 10.6701 7.42595 9.15384C6.89713 8.50382 6.41047 7.82996 5.93738 7.14705C6.12142 7.33858 6.36797 7.4818 6.68448 7.54211C16.9106 9.48988 26.6817 11.066 35.7676 16.5633C37.9998 17.9126 40.1254 19.4597 42.0815 21.1948C41.8569 21.2768 41.6267 21.3498 41.4022 21.4352C34.0281 24.2571 25.8539 32.515 32.8439 40.2293C37.8045 45.7055 51.5319 47.6479 54.175 38.7351C55.8639 33.0405 52.4303 27.0794 48.0642 22.3225C51.3541 21.5332 54.7492 21.0695 57.9934 20.6629C64.7564 19.8144 71.6747 19.9321 78.4462 20.6321C78.7147 20.6596 78.8272 20.2819 78.548 20.2105Z" fill="black"/>
</svg>
